<svg width="198" height="66" viewBox="0 0 198 66" fill="none" xmlns="http://www.w3.org/2000/svg">
<path d="M66 33C66 39.5268 64.0646 45.907 60.4385 51.3338C56.8124 56.7606 51.6585 60.9903 45.6286 63.488C39.5986 65.9857 32.9634 66.6392 26.562 65.3659C20.1607 64.0926 14.2806 60.9496 9.6655 56.3345C5.05036 51.7194 1.90742 45.8394 0.634104 39.438C-0.639208 33.0366 0.0142889 26.4014 2.51198 20.3714C5.00967 14.3415 9.23938 9.18758 14.6662 5.5615C20.093 1.93541 26.4732 0 33 0C41.7522 0 50.1458 3.47678 56.3345 9.66548C62.5232 15.8542 66 24.2479 66 33ZM38.5193 17.49V34.0807L26.9693 17.49H17.49V48.5513H27.4725V31.911L39.0225 48.51H48.5348V17.49H38.5193Z" fill="#03C75A"/>
<path d="M184.296 15.6583L175.174 36.4434L164.855 15.6583H156.922L171.535 44.495L165.511 58.0074H173.215L192 15.6993L184.296 15.6583ZM151.851 47.7993H144.311V44.7984C141.568 47.2027 138.032 48.5055 134.386 48.4552C125.37 48.4552 118.314 41.0759 118.314 31.7288C118.314 22.3817 125.362 15.0024 134.386 15.0024C138.031 14.9499 141.567 16.2497 144.311 18.651V15.6583H151.851V47.7993ZM145.196 31.7698C145.196 25.7106 140.967 21.1108 135.361 21.1108C129.755 21.1108 125.526 25.7106 125.526 31.7698C125.526 37.829 129.747 42.4288 135.361 42.4288C140.975 42.4288 145.196 37.788 145.196 31.7698ZM81.0246 58.0074H88.8926V45.069C91.5847 47.3085 94.9893 48.5097 98.49 48.4552C107.505 48.4552 114.57 41.0759 114.57 31.7288C114.57 22.3817 107.514 15.0024 98.49 15.0024C94.835 14.9367 91.287 16.2378 88.5402 18.651V15.6583H81L81.0246 58.0074ZM97.5557 21.1108C103.162 21.1108 107.391 25.7106 107.391 31.7698C107.391 37.829 103.162 42.4288 97.5557 42.4288C91.9497 42.4288 87.7206 37.829 87.7206 31.7698C87.7206 25.7106 91.9005 21.1108 97.5557 21.1108Z" fill="#03C75A"/>
</svg>
